{
  "source": "C:\\Users\\Peter\\Desktop\\stuff\\MIUN\\quantitative_research\\video_compression\\videos\\BVI-HD\\BVI-HD_CDVL_videos\\ORIG\\DiverFishAndRock_1920x1080_30fps.mp4",
  "output": "C:\\Users\\Peter\\Desktop\\stuff\\MIUN\\quantitative_research\\video_compression\\compressed_videos\\BVI-HD\\av1\\1\\DiverFishAndRock_1920x1080_30fps_av1.mkv",
  "codec": "av1",
  "ok": "Input #0, mov,mp4,m4a,3gp,3g2,mj2, from 'C:\\Users\\Peter\\Desktop\\stuff\\MIUN\\quantitative_research\\video_compression\\videos\\BVI-HD\\BVI-HD_CDVL_videos\\ORIG\\DiverFishAndRock_1920x1080_30fps.mp4':\n  Metadata:\n    major_brand     : isom\n    minor_version   : 512\n    compatible_brands: isomiso2avc1mp41\n    encoder         : Lavf54.28.101\n  Duration: 00:00:05.00, start: 0.000000, bitrate: 228854 kb/s\n  Stream #0:0[0x1](und): Video: h264 (High 4:4:4 Predictive) (avc1 / 0x31637661), yuv420p(progressive), 1920x1080, 228851 kb/s, 30 fps, 30 tbr, 30 tbn (default)\n    Metadata:\n      handler_name    : VideoHandler\n      vendor_id       : [0][0][0][0]\n[out#0/matroska @ 0000016b835c0b80] Codec AVOption b:a (set bitrate (in bits/s)) has not been used for any stream. The most likely reason is either wrong type (e.g. a video option with no video streams) or that it is a private option of some decoder which was not actually used for any stream.\nStream mapping:\n  Stream #0:0 -> #0:0 (h264 (native) -> av1 (libsvtav1))\nPress [q] to stop, [?] for help\nSvt[info]: -------------------------------------------\nSvt[info]: SVT [version]:\tSVT-AV1 Encoder Lib v3.1.0-19-g6ecfe8ec\nSvt[info]: SVT [build]  :\tGCC 15.2.0\t 64 bit\nSvt[info]: LIB Build date: Aug 17 2025 11:37:13\nSvt[info]: -------------------------------------------\nSvt[info]: Level of Parallelism: 5\nSvt[info]: Number of PPCS 93\nSvt[info]: [asm level on system : up to avx2]\nSvt[info]: [asm level selected : up to avx2]\nSvt[info]: -------------------------------------------\nSvt[info]: SVT [config]: main profile\ttier (auto)\tlevel (auto)\nSvt[info]: SVT [config]: width / height / fps numerator / fps denominator \t\t: 1920 / 1080 / 30 / 1\nSvt[info]: SVT [config]: bit-depth / color format \t\t\t\t\t: 8 / YUV420\nSvt[info]: SVT [config]: preset / tune / pred struct \t\t\t\t\t: 4 / PSNR / random access\nSvt[info]: SVT [config]: gop size / mini-gop size / key-frame type \t\t\t: 161 / 16 / key frame\nSvt[info]: SVT [config]: BRC mode / target bitrate (kbps)\t\t\t\t: VBR / 1000 \nSvt[info]: SVT [config]: AQ mode / Variance Boost \t\t\t\t\t: 2 / 0\nSvt[info]: SVT [config]: sharpness / luminance-based QP bias \t\t\t\t: 0 / 0\nSvt[info]: SVT [config]: QP scale compress strength \t\t\t\t\t: 0\nSvt[info]: -------------------------------------------\nOutput #0, matroska, to 'C:\\Users\\Peter\\Desktop\\stuff\\MIUN\\quantitative_research\\video_compression\\compressed_videos\\BVI-HD\\av1\\1\\DiverFishAndRock_1920x1080_30fps_av1.mkv':\n  Metadata:\n    major_brand     : isom\n    minor_version   : 512\n    compatible_brands: isomiso2avc1mp41\n    encoder         : Lavf62.3.100\n  Stream #0:0(und): Video: av1 (AV01 / 0x31305641), yuv420p(tv, progressive), 1920x1080, q=2-31, 1000 kb/s, 30 fps, 1k tbn (default)\n    Metadata:\n      encoder         : Lavc62.11.100 libsvtav1\n      handler_name    : VideoHandler\n      vendor_id       : [0][0][0][0]\n    Side data:\n      cpb: bitrate max/min/avg: 0/0/1000000 buffer size: 1000000 vbv_delay: N/A\nframe=    0 fps=0.0 q=0.0 size=       0KiB time=N/A bitrate=N/A speed=N/A elapsed=0:00:01.02    \nframe=    0 fps=0.0 q=0.0 size=       0KiB time=N/A bitrate=N/A speed=N/A elapsed=0:00:01.55    \nframe=    0 fps=0.0 q=0.0 size=       0KiB time=N/A bitrate=N/A speed=N/A elapsed=0:00:02.08    \nframe=    0 fps=0.0 q=0.0 size=       0KiB time=N/A bitrate=N/A speed=N/A elapsed=0:00:02.64    \nframe=    0 fps=0.0 q=0.0 size=       0KiB time=N/A bitrate=N/A speed=N/A elapsed=0:00:03.18    \nframe=    0 fps=0.0 q=0.0 size=       0KiB time=N/A bitrate=N/A speed=N/A elapsed=0:00:03.72    \nframe=    0 fps=0.0 q=0.0 size=       0KiB time=N/A bitrate=N/A speed=N/A elapsed=0:00:04.30    \nframe=    1 fps=0.2 q=27.0 size=       1KiB time=00:00:00.00 bitrate=N/A speed=   0x elapsed=0:00:04.84    \nframe=    1 fps=0.2 q=27.0 size=       1KiB time=00:00:00.00 bitrate=N/A speed=   0x elapsed=0:00:05.40    \nframe=    1 fps=0.2 q=27.0 size=       1KiB time=00:00:00.00 bitrate=N/A speed=   0x elapsed=0:00:05.92    \nframe=    3 fps=0.5 q=48.0 size=       1KiB time=00:00:00.06 bitrate=  85.6kbits/s speed=0.0103x elapsed=0:00:06.48    \nframe=    7 fps=1.0 q=48.0 size=       1KiB time=00:00:00.20 bitrate=  28.5kbits/s speed=0.0285x elapsed=0:00:07.00    \nframe=   10 fps=1.3 q=51.0 size=       1KiB time=00:00:00.26 bitrate=  21.4kbits/s speed=0.0353x elapsed=0:00:07.56    \nframe=   12 fps=1.5 q=50.0 size=       1KiB time=00:00:00.36 bitrate=  15.6kbits/s speed=0.045x elapsed=0:00:08.14    \nframe=   17 fps=2.0 q=32.0 size=       1KiB time=00:00:00.53 bitrate=  10.7kbits/s speed=0.0614x elapsed=0:00:08.69    \nframe=   21 fps=2.3 q=45.0 size=       1KiB time=00:00:00.66 bitrate=   8.6kbits/s speed=0.0723x elapsed=0:00:09.22    \nframe=   23 fps=2.4 q=45.0 size=       1KiB time=00:00:00.73 bitrate=   7.8kbits/s speed=0.0753x elapsed=0:00:09.73    \nframe=   27 fps=2.6 q=47.0 size=       1KiB time=00:00:00.86 bitrate=   6.6kbits/s speed=0.0845x elapsed=0:00:10.26    \nframe=   33 fps=3.1 q=31.0 size=       1KiB time=00:00:01.06 bitrate=   5.3kbits/s speed=0.0988x elapsed=0:00:10.79    \nframe=   36 fps=3.2 q=50.0 size=       1KiB time=00:00:01.16 bitrate=   4.9kbits/s speed=0.103x elapsed=0:00:11.30    \nframe=   39 fps=3.3 q=44.0 size=       1KiB time=00:00:01.26 bitrate=   4.5kbits/s speed=0.107x elapsed=0:00:11.85    \nframe=   43 fps=3.5 q=47.0 size=       1KiB time=00:00:01.40 bitrate=   4.1kbits/s speed=0.113x elapsed=0:00:12.43    \nframe=   48 fps=3.7 q=49.0 size=       1KiB time=00:00:01.56 bitrate=   3.6kbits/s speed=0.121x elapsed=0:00:12.99    \nframe=   52 fps=3.8 q=50.0 size=       1KiB time=00:00:01.70 bitrate=   3.4kbits/s speed=0.126x elapsed=0:00:13.51    \nframe=   57 fps=4.1 q=43.0 size=       1KiB time=00:00:01.86 bitrate=   3.1kbits/s speed=0.133x elapsed=0:00:14.04    \nframe=   61 fps=4.2 q=44.0 size=       1KiB time=00:00:02.00 bitrate=   2.9kbits/s speed=0.137x elapsed=0:00:14.58    \nframe=   65 fps=4.3 q=32.0 size=       1KiB time=00:00:02.13 bitrate=   2.7kbits/s speed=0.141x elapsed=0:00:15.11    \nframe=   69 fps=4.4 q=48.0 size=       1KiB time=00:00:02.26 bitrate=   2.5kbits/s speed=0.145x elapsed=0:00:15.63    \nframe=   73 fps=4.5 q=44.0 size=       1KiB time=00:00:02.40 bitrate=   2.4kbits/s speed=0.149x elapsed=0:00:16.14    \nframe=   77 fps=4.6 q=44.0 size=       1KiB time=00:00:02.53 bitrate=   2.3kbits/s speed=0.152x elapsed=0:00:16.68    \nframe=   81 fps=4.7 q=32.0 size=       1KiB time=00:00:02.66 bitrate=   2.1kbits/s speed=0.155x elapsed=0:00:17.21    \nframe=   85 fps=4.8 q=47.0 size=       1KiB time=00:00:02.80 bitrate=   2.0kbits/s speed=0.158x elapsed=0:00:17.72    \nframe=   89 fps=4.9 q=44.0 size=       1KiB time=00:00:02.93 bitrate=   1.9kbits/s speed=0.161x elapsed=0:00:18.25    \nframe=   93 fps=4.9 q=43.0 size=       1KiB time=00:00:03.06 bitrate=   1.9kbits/s speed=0.163x elapsed=0:00:18.79    \nframe=   99 fps=5.1 q=50.0 size=       1KiB time=00:00:03.26 bitrate=   1.7kbits/s speed=0.169x elapsed=0:00:19.31    \nframe=  105 fps=5.3 q=43.0 size=       1KiB time=00:00:03.46 bitrate=   1.6kbits/s speed=0.175x elapsed=0:00:19.83    \nframe=  105 fps=5.2 q=43.0 size=       1KiB time=00:00:03.46 bitrate=   1.6kbits/s speed=0.17x elapsed=0:00:20.35    \nframe=  109 fps=5.2 q=45.0 size=       1KiB time=00:00:03.60 bitrate=   1.6kbits/s speed=0.172x elapsed=0:00:20.87    \nframe=  115 fps=5.4 q=50.0 size=       1KiB time=00:00:03.80 bitrate=   1.5kbits/s speed=0.177x elapsed=0:00:21.42    \nframe=  121 fps=5.5 q=44.0 size=       1KiB time=00:00:04.00 bitrate=   1.4kbits/s speed=0.182x elapsed=0:00:21.93    \nframe=  123 fps=5.5 q=50.0 size=       1KiB time=00:00:04.06 bitrate=   1.4kbits/s speed=0.181x elapsed=0:00:22.46    \nframe=  129 fps=5.6 q=32.0 size=       1KiB time=00:00:04.26 bitrate=   1.3kbits/s speed=0.186x elapsed=0:00:22.96    \nframe=  133 fps=5.7 q=52.0 size=       1KiB time=00:00:04.40 bitrate=   1.3kbits/s speed=0.187x elapsed=0:00:23.49    \nframe=  139 fps=5.8 q=52.0 size=       1KiB time=00:00:04.60 bitrate=   1.2kbits/s speed=0.192x elapsed=0:00:24.01    \n[out#0/matroska @ 0000016b835c0b80] video:666KiB audio:0KiB subtitle:0KiB other streams:0KiB global headers:0KiB muxing overhead: 0.211681%\nframe=  150 fps=6.1 q=52.0 Lsize=     667KiB time=00:00:04.96 bitrate=1100.3kbits/s speed=0.203x elapsed=0:00:24.46    \n",
  "seconds": 25.019463300704956,
  "probe_out": {}
}